<svg width="105" height="98" viewBox="0 0 105 98" fill="none" xmlns="http://www.w3.org/2000/svg">
<g id="Group 2">
<path id="2" d="M81.1089 82.2189C82.9564 82.2189 84.4113 82.7305 85.4736 83.7538C86.5821 84.7326 87.1364 86.0451 87.1364 87.6912V97.5682H18.4091V92.0958C18.4091 90.9836 18.64 89.8268 19.1019 88.6255C19.61 87.3798 20.3952 86.2675 21.4575 85.2887L51.8721 55.9249C54.4124 53.4334 56.6756 51.0531 58.6617 48.7841C60.6939 46.5151 62.3798 44.2683 63.7192 42.0437C65.0586 39.8192 66.0748 37.5724 66.7676 35.3034C67.5066 32.9899 67.8761 30.5651 67.8761 28.0292C67.8761 25.7156 67.5297 23.6913 66.8369 21.9562C66.1441 20.1765 65.151 18.6861 63.8578 17.4849C62.6107 16.2836 61.0865 15.3938 59.2852 14.8154C57.5301 14.1925 55.544 13.8811 53.327 13.8811C51.2947 13.8811 49.401 14.1703 47.6459 14.7487C45.9369 15.2826 44.4128 16.0611 43.0733 17.0844C41.7339 18.0632 40.6023 19.22 39.6785 20.5547C38.7548 21.8894 38.0619 23.3576 37.6001 24.9593C36.8149 27.0059 35.7987 28.3628 34.5517 29.0302C33.3046 29.6976 31.5033 29.8533 29.1477 29.4973L20.1411 27.9624C20.8339 23.3354 22.1734 19.2867 24.1595 15.8165C26.1455 12.3017 28.6166 9.38754 31.5726 7.07402C34.5748 4.71602 37.9927 2.95863 41.8262 1.80187C45.706 0.600625 49.8629 0 54.2969 0C58.9157 0 63.1419 0.667359 66.9754 2.00208C70.809 3.29231 74.0883 5.13867 76.8134 7.54117C79.5385 9.94368 81.6631 12.8356 83.1873 16.2169C84.7115 19.5982 85.4736 23.3576 85.4736 27.4953C85.4736 31.0545 84.9193 34.3468 83.8109 37.3722C82.7485 40.3976 81.2936 43.2895 79.4461 46.0479C77.6448 48.8063 75.5202 51.4758 73.0722 54.0562C70.6243 56.6367 68.0608 59.2617 65.382 61.9311L42.7962 84.1542C44.967 83.5313 47.1147 83.0642 49.2394 82.7528C51.4102 82.3968 53.4655 82.2189 55.4054 82.2189H81.1089Z" fill="#131319"/>
<g id="Group 1">
<g id="sh">
<path d="M4.14258 49.5C1.38086 49.5 0 48.1179 0 45.3538V44.2574H3.35885V45.879C3.35885 46.1922 3.42105 46.4379 3.54545 46.6161C3.66986 46.7942 3.8689 46.8833 4.14258 46.8833C4.62775 46.8833 4.87034 46.5239 4.87034 45.8053C4.87034 45.2033 4.74282 44.7549 4.4878 44.4601C4.23278 44.1591 3.92177 43.8704 3.55478 43.594L1.77273 42.2395C1.21292 41.8096 0.786842 41.355 0.494498 40.8759C0.202153 40.3968 0.0559809 39.7303 0.0559809 38.8765C0.0559809 38.0841 0.245694 37.43 0.62512 36.914C1.01077 36.398 1.5177 36.0141 2.14593 35.7623C2.78038 35.5104 3.46459 35.3845 4.19856 35.3845C6.91053 35.3845 8.26651 36.7205 8.26651 39.3925V39.6505H4.81435V39.1253C4.81435 38.8489 4.76459 38.5817 4.66507 38.3237C4.57177 38.0657 4.38517 37.9367 4.10526 37.9367C3.63254 37.9367 3.39617 38.1824 3.39617 38.6738C3.39617 39.1714 3.59522 39.5614 3.9933 39.844L6.06459 41.3366C6.71148 41.7973 7.25263 42.344 7.68804 42.9766C8.12967 43.6093 8.35048 44.4508 8.35048 45.5012C8.35048 46.8034 7.97416 47.7954 7.22153 48.4773C6.47512 49.1591 5.4488 49.5 4.14258 49.5Z" fill="#37A22E"/>
<path d="M9.37679 49.3526V33.1364H12.8103V36.9048C12.9907 36.3888 13.2675 36.008 13.6407 35.7623C14.0139 35.5104 14.4493 35.3845 14.9469 35.3845C15.9172 35.3845 16.6232 35.6855 17.0648 36.2875C17.5065 36.8894 17.7273 37.6972 17.7273 38.7107V49.3526H14.3498V38.9226C14.3498 38.6216 14.2844 38.3759 14.1538 38.1855C14.0294 37.9951 13.8304 37.8999 13.5567 37.8999C13.3266 37.8999 13.1431 37.9981 13.0062 38.1947C12.8756 38.3913 12.8103 38.6247 12.8103 38.895V49.3526H9.37679Z" fill="#37A22E"/>
</g>
<path id="c" d="M9.19118 80.8636C5.85615 80.8636 3.48722 80.0216 2.08439 78.3375C0.694798 76.6535 0 74.1796 0 70.9159V61.8689C0 59.4146 0.264685 57.3715 0.794055 55.7396C1.32342 54.1078 2.24982 52.8871 3.57325 52.0777C4.89667 51.2683 6.73623 50.8636 9.09193 50.8636C10.733 50.8636 12.202 51.1509 13.4989 51.7253C14.8091 52.2997 15.8414 53.1417 16.5957 54.2514C17.3501 55.361 17.7273 56.7187 17.7273 58.3245V62.8088H10.4815V58.6965C10.4815 58.0177 10.3823 57.4498 10.1838 56.9929C9.98524 56.5229 9.55513 56.2879 8.89341 56.2879C7.7288 56.2879 7.14649 57.1039 7.14649 58.7357V72.972C7.14649 73.5725 7.27884 74.1274 7.54352 74.6365C7.80821 75.1326 8.24494 75.3806 8.85371 75.3806C9.47572 75.3806 9.90583 75.1391 10.144 74.6561C10.3955 74.16 10.5212 73.5856 10.5212 72.9328V67.9981H17.7273V73.1287C17.7273 74.7475 17.3567 76.1378 16.6156 77.2997C15.8877 78.4485 14.8819 79.3297 13.5982 79.9433C12.3145 80.5569 10.8455 80.8636 9.19118 80.8636Z" fill="white"/>
<g id="are">
<path d="M31.5403 82.2273C28.8753 82.2273 26.8392 81.6086 25.432 80.3712C24.0462 79.1337 23.0974 77.4376 22.5857 75.2829C22.074 73.1281 21.8182 70.6852 21.8182 67.9544C21.8182 65.0316 22.106 62.6421 22.6817 60.786C23.2573 58.9085 24.2381 57.3725 25.6239 56.1777C27.031 54.983 28.9605 53.9696 31.4124 53.1375L38.5121 50.7054V45.7771C38.5121 43.1956 37.67 41.9049 35.9856 41.9049C34.4506 41.9049 33.683 42.9503 33.683 45.0411V47.9212H22.5537C22.5324 47.7506 22.5218 47.5372 22.5218 47.2812C22.5218 47.0038 22.5218 46.6945 22.5218 46.3531C22.5218 41.5742 23.6411 38.1927 25.8797 36.2085C28.1397 34.2031 31.7109 33.2004 36.5933 33.2004C39.1517 33.2004 41.4437 33.6591 43.4691 34.5764C45.4946 35.4725 47.0936 36.8059 48.2662 38.5767C49.4602 40.3474 50.0571 42.5342 50.0571 45.1371V81.7152H38.672V76.0189C38.1177 78.0243 37.2009 79.5604 35.9217 80.6272C34.6424 81.6939 33.182 82.2273 31.5403 82.2273ZM36.0496 73.3307C36.9877 73.3307 37.6273 72.936 37.9684 72.1467C38.3096 71.3573 38.4801 70.5039 38.4801 69.5865V56.2097C36.9024 56.8498 35.6765 57.6605 34.8023 58.6419C33.9282 59.6019 33.4911 61.0207 33.4911 62.8981V69.0745C33.4911 71.912 34.344 73.3307 36.0496 73.3307Z" fill="#4A465D"/>
<path d="M54.4705 81.7152V33.7124H66.1115V39.0567C66.6658 37.2006 67.6465 35.7498 69.0537 34.7044C70.4608 33.6591 72.2304 33.1364 74.3625 33.1364V42.7049C73.4244 42.7049 72.3051 42.8116 71.0045 43.0249C69.704 43.217 68.5633 43.4943 67.5826 43.857C66.6018 44.1983 66.1115 44.5824 66.1115 45.0091V81.7152H54.4705Z" fill="#4A465D"/>
<path d="M90.6087 82.2273C87.1974 82.2273 84.479 81.5872 82.4536 80.3071C80.4282 79.0271 78.9784 77.1816 78.1042 74.7708C77.2301 72.36 76.793 69.4585 76.793 66.0663V46.7692C76.793 42.3102 78.0722 38.9394 80.6307 36.6566C83.1892 34.3524 86.707 33.2004 91.1843 33.2004C100.395 33.2004 105 37.7233 105 46.7692V50.2574C105 54.4816 104.957 57.3191 104.872 58.7699H88.2421V68.0504C88.2421 68.9038 88.2954 69.7465 88.402 70.5786C88.5086 71.3893 88.7431 72.0613 89.1056 72.5947C89.4894 73.1281 90.097 73.3947 90.9285 73.3947C92.1224 73.3947 92.8687 72.8827 93.1671 71.8586C93.4656 70.8133 93.6149 69.4585 93.6149 67.7944V63.1861H105V65.9063C105 69.4905 104.552 72.4987 103.657 74.9308C102.783 77.3416 101.29 79.1657 99.1795 80.4032C97.0901 81.6192 94.2332 82.2273 90.6087 82.2273ZM88.1781 53.0735H93.6149V46.6092C93.6149 44.881 93.4017 43.6436 92.9752 42.8969C92.5488 42.1289 91.9092 41.7449 91.0564 41.7449C90.1396 41.7449 89.4254 42.1076 88.9137 42.8329C88.4233 43.5583 88.1781 44.817 88.1781 46.6092V53.0735Z" fill="#4A465D"/>
</g>
</g>
</g>
</svg>
